<mxfile host="Electron" agent="Mozilla/5.0 (Windows NT 10.0; Win64; x64) AppleWebKit/537.36 (KHTML, like Gecko) draw.io/24.7.17 Chrome/128.0.6613.36 Electron/32.0.1 Safari/537.36" version="24.7.17">
  <diagram name="Сторінка-1" id="SthxytY6gJT9zLu_1Fjs">
    <mxGraphModel dx="954" dy="657" grid="1" gridSize="10" guides="1" tooltips="1" connect="1" arrows="1" fold="1" page="1" pageScale="1" pageWidth="827" pageHeight="1169" math="0" shadow="0">
      <root>
        <mxCell id="0" />
        <mxCell id="1" parent="0" />
        <mxCell id="Kpe7RTDasw_fx5cPsyO8-3" value="" style="edgeStyle=orthogonalEdgeStyle;rounded=0;orthogonalLoop=1;jettySize=auto;html=1;" parent="1" source="Kpe7RTDasw_fx5cPsyO8-1" target="Kpe7RTDasw_fx5cPsyO8-2" edge="1">
          <mxGeometry relative="1" as="geometry" />
        </mxCell>
        <mxCell id="Kpe7RTDasw_fx5cPsyO8-1" value="&lt;font style=&quot;font-size: 20px;&quot;&gt;start&lt;/font&gt;" style="ellipse;whiteSpace=wrap;html=1;" parent="1" vertex="1">
          <mxGeometry x="350" y="60" width="120" height="60" as="geometry" />
        </mxCell>
        <mxCell id="Kpe7RTDasw_fx5cPsyO8-5" value="" style="edgeStyle=orthogonalEdgeStyle;rounded=0;orthogonalLoop=1;jettySize=auto;html=1;" parent="1" source="Kpe7RTDasw_fx5cPsyO8-2" target="Kpe7RTDasw_fx5cPsyO8-4" edge="1">
          <mxGeometry relative="1" as="geometry" />
        </mxCell>
        <mxCell id="Kpe7RTDasw_fx5cPsyO8-2" value="&lt;font style=&quot;font-size: 20px;&quot;&gt;int n&lt;/font&gt;" style="whiteSpace=wrap;html=1;" parent="1" vertex="1">
          <mxGeometry x="315" y="200" width="190" height="40" as="geometry" />
        </mxCell>
        <mxCell id="Kpe7RTDasw_fx5cPsyO8-7" value="" style="edgeStyle=orthogonalEdgeStyle;rounded=0;orthogonalLoop=1;jettySize=auto;html=1;" parent="1" source="Kpe7RTDasw_fx5cPsyO8-4" target="Kpe7RTDasw_fx5cPsyO8-6" edge="1">
          <mxGeometry relative="1" as="geometry" />
        </mxCell>
        <mxCell id="Kpe7RTDasw_fx5cPsyO8-4" value="&lt;div style=&quot;font-family: Consolas, &amp;quot;Courier New&amp;quot;, monospace; font-weight: normal; line-height: 19px; white-space: pre; font-size: 20px;&quot;&gt;&lt;div style=&quot;&quot;&gt;&lt;font style=&quot;font-size: 20px;&quot;&gt;cout &amp;lt;&amp;lt; &quot;Enter number of fractional numbers &quot;&lt;/font&gt;&lt;/div&gt;&lt;/div&gt;" style="shape=parallelogram;perimeter=parallelogramPerimeter;whiteSpace=wrap;html=1;fixedSize=1;" parent="1" vertex="1">
          <mxGeometry x="145" y="370" width="530" height="60" as="geometry" />
        </mxCell>
        <mxCell id="Kpe7RTDasw_fx5cPsyO8-9" value="" style="edgeStyle=orthogonalEdgeStyle;rounded=0;orthogonalLoop=1;jettySize=auto;html=1;" parent="1" source="Kpe7RTDasw_fx5cPsyO8-6" target="Kpe7RTDasw_fx5cPsyO8-8" edge="1">
          <mxGeometry relative="1" as="geometry" />
        </mxCell>
        <mxCell id="Kpe7RTDasw_fx5cPsyO8-6" value="&lt;div style=&quot;font-family: Consolas, &amp;quot;Courier New&amp;quot;, monospace; font-weight: normal; line-height: 19px; white-space: pre; font-size: 20px;&quot;&gt;&lt;div style=&quot;&quot;&gt;cin &amp;gt;&amp;gt; n&lt;/div&gt;&lt;/div&gt;" style="shape=parallelogram;perimeter=parallelogramPerimeter;whiteSpace=wrap;html=1;fixedSize=1;" parent="1" vertex="1">
          <mxGeometry x="288" y="510" width="245" height="50" as="geometry" />
        </mxCell>
        <mxCell id="Kpe7RTDasw_fx5cPsyO8-11" value="" style="edgeStyle=orthogonalEdgeStyle;rounded=0;orthogonalLoop=1;jettySize=auto;html=1;" parent="1" source="Kpe7RTDasw_fx5cPsyO8-8" target="Kpe7RTDasw_fx5cPsyO8-10" edge="1">
          <mxGeometry relative="1" as="geometry" />
        </mxCell>
        <mxCell id="Kpe7RTDasw_fx5cPsyO8-8" value="&lt;font style=&quot;font-size: 20px;&quot;&gt;double s = 0&lt;/font&gt;" style="whiteSpace=wrap;html=1;" parent="1" vertex="1">
          <mxGeometry x="336.5" y="635" width="149.5" height="60" as="geometry" />
        </mxCell>
        <mxCell id="Kpe7RTDasw_fx5cPsyO8-14" value="" style="edgeStyle=orthogonalEdgeStyle;rounded=0;orthogonalLoop=1;jettySize=auto;html=1;" parent="1" source="Kpe7RTDasw_fx5cPsyO8-10" target="Kpe7RTDasw_fx5cPsyO8-13" edge="1">
          <mxGeometry relative="1" as="geometry" />
        </mxCell>
        <mxCell id="Kpe7RTDasw_fx5cPsyO8-10" value="&lt;font style=&quot;font-size: 20px;&quot;&gt;double a[n]&lt;/font&gt;" style="whiteSpace=wrap;html=1;" parent="1" vertex="1">
          <mxGeometry x="336.5" y="775" width="149.5" height="60" as="geometry" />
        </mxCell>
        <mxCell id="Kpe7RTDasw_fx5cPsyO8-18" value="" style="edgeStyle=orthogonalEdgeStyle;rounded=0;orthogonalLoop=1;jettySize=auto;html=1;" parent="1" source="Kpe7RTDasw_fx5cPsyO8-13" target="Kpe7RTDasw_fx5cPsyO8-17" edge="1">
          <mxGeometry relative="1" as="geometry" />
        </mxCell>
        <mxCell id="Kpe7RTDasw_fx5cPsyO8-13" value="&lt;div style=&quot;font-family: Consolas, &amp;quot;Courier New&amp;quot;, monospace; font-size: 20px; line-height: 19px; white-space: pre;&quot;&gt;cout &amp;lt;&amp;lt; &quot;Enter fractional numbers&quot;&lt;/div&gt;" style="shape=parallelogram;perimeter=parallelogramPerimeter;whiteSpace=wrap;html=1;fixedSize=1;" parent="1" vertex="1">
          <mxGeometry x="197.25" y="915" width="428.75" height="60" as="geometry" />
        </mxCell>
        <mxCell id="Kpe7RTDasw_fx5cPsyO8-20" value="" style="edgeStyle=orthogonalEdgeStyle;rounded=0;orthogonalLoop=1;jettySize=auto;html=1;" parent="1" source="Kpe7RTDasw_fx5cPsyO8-17" target="Kpe7RTDasw_fx5cPsyO8-19" edge="1">
          <mxGeometry relative="1" as="geometry" />
        </mxCell>
        <mxCell id="Kpe7RTDasw_fx5cPsyO8-28" value="" style="edgeStyle=orthogonalEdgeStyle;rounded=0;orthogonalLoop=1;jettySize=auto;html=1;" parent="1" source="Kpe7RTDasw_fx5cPsyO8-17" target="Kpe7RTDasw_fx5cPsyO8-27" edge="1">
          <mxGeometry relative="1" as="geometry" />
        </mxCell>
        <mxCell id="Kpe7RTDasw_fx5cPsyO8-17" value="&lt;font style=&quot;font-size: 20px;&quot;&gt;for (int i=0;i&amp;lt;N)&lt;/font&gt;" style="rhombus;whiteSpace=wrap;html=1;" parent="1" vertex="1">
          <mxGeometry x="327.63" y="1045" width="168.37" height="115" as="geometry" />
        </mxCell>
        <mxCell id="Kpe7RTDasw_fx5cPsyO8-22" value="" style="edgeStyle=orthogonalEdgeStyle;rounded=0;orthogonalLoop=1;jettySize=auto;html=1;" parent="1" source="Kpe7RTDasw_fx5cPsyO8-19" target="Kpe7RTDasw_fx5cPsyO8-21" edge="1">
          <mxGeometry relative="1" as="geometry" />
        </mxCell>
        <mxCell id="Kpe7RTDasw_fx5cPsyO8-19" value="&lt;font style=&quot;font-size: 20px;&quot;&gt;cin &amp;lt;&amp;lt;a[i]&lt;/font&gt;" style="shape=parallelogram;perimeter=parallelogramPerimeter;whiteSpace=wrap;html=1;fixedSize=1;size=18.184999999999945;" parent="1" vertex="1">
          <mxGeometry x="351.815" y="1267.5" width="120" height="60" as="geometry" />
        </mxCell>
        <mxCell id="Kpe7RTDasw_fx5cPsyO8-24" value="" style="edgeStyle=orthogonalEdgeStyle;rounded=0;orthogonalLoop=1;jettySize=auto;html=1;" parent="1" source="Kpe7RTDasw_fx5cPsyO8-21" target="Kpe7RTDasw_fx5cPsyO8-23" edge="1">
          <mxGeometry relative="1" as="geometry" />
        </mxCell>
        <mxCell id="Kpe7RTDasw_fx5cPsyO8-21" value="&lt;font style=&quot;font-size: 20px;&quot;&gt;s+=a[i]&lt;/font&gt;" style="whiteSpace=wrap;html=1;" parent="1" vertex="1">
          <mxGeometry x="351.815" y="1407.5" width="120" height="60" as="geometry" />
        </mxCell>
        <mxCell id="Kpe7RTDasw_fx5cPsyO8-26" style="edgeStyle=orthogonalEdgeStyle;rounded=0;orthogonalLoop=1;jettySize=auto;html=1;exitX=0;exitY=0.5;exitDx=0;exitDy=0;" parent="1" source="Kpe7RTDasw_fx5cPsyO8-23" edge="1">
          <mxGeometry relative="1" as="geometry">
            <mxPoint x="410" y="1030" as="targetPoint" />
            <Array as="points">
              <mxPoint x="250" y="1578" />
              <mxPoint x="250" y="1030" />
            </Array>
          </mxGeometry>
        </mxCell>
        <mxCell id="Kpe7RTDasw_fx5cPsyO8-23" value="&lt;font style=&quot;font-size: 20px;&quot;&gt;i++&lt;/font&gt;" style="whiteSpace=wrap;html=1;" parent="1" vertex="1">
          <mxGeometry x="351.815" y="1547.5" width="120" height="60" as="geometry" />
        </mxCell>
        <mxCell id="Kpe7RTDasw_fx5cPsyO8-30" value="" style="edgeStyle=orthogonalEdgeStyle;rounded=0;orthogonalLoop=1;jettySize=auto;html=1;" parent="1" source="Kpe7RTDasw_fx5cPsyO8-27" target="Kpe7RTDasw_fx5cPsyO8-29" edge="1">
          <mxGeometry relative="1" as="geometry" />
        </mxCell>
        <mxCell id="Kpe7RTDasw_fx5cPsyO8-27" value="&lt;div style=&quot;font-family: Consolas, &amp;quot;Courier New&amp;quot;, monospace; font-size: 20px; line-height: 19px; white-space: pre;&quot;&gt;&lt;div style=&quot;color: rgb(204, 204, 204); background-color: rgb(31, 31, 31);&quot;&gt;&lt;/div&gt;&lt;div style=&quot;&quot;&gt;cout &amp;lt;&amp;lt; &quot;arithmetic mean = &quot; &amp;lt;&amp;lt; (s / n)&lt;/div&gt;&lt;/div&gt;" style="shape=parallelogram;perimeter=parallelogramPerimeter;whiteSpace=wrap;html=1;fixedSize=1;" parent="1" vertex="1">
          <mxGeometry x="600.18" y="1170" width="509.82" height="60" as="geometry" />
        </mxCell>
        <mxCell id="Kpe7RTDasw_fx5cPsyO8-29" value="&lt;font style=&quot;font-size: 20px;&quot;&gt;end&lt;/font&gt;" style="ellipse;whiteSpace=wrap;html=1;" parent="1" vertex="1">
          <mxGeometry x="815.09" y="1300" width="80" height="50" as="geometry" />
        </mxCell>
        <mxCell id="zwZdrp1KzU8o82r8Uz2q-1" value="yes" style="text;html=1;align=center;verticalAlign=middle;resizable=0;points=[];autosize=1;strokeColor=none;fillColor=none;" vertex="1" parent="1">
          <mxGeometry x="420" y="1178" width="40" height="30" as="geometry" />
        </mxCell>
        <mxCell id="zwZdrp1KzU8o82r8Uz2q-2" value="no" style="text;html=1;align=center;verticalAlign=middle;resizable=0;points=[];autosize=1;strokeColor=none;fillColor=none;" vertex="1" parent="1">
          <mxGeometry x="510" y="1068" width="40" height="30" as="geometry" />
        </mxCell>
      </root>
    </mxGraphModel>
  </diagram>
</mxfile>
